<mxfile host="app.diagrams.net" modified="2023-12-21T13:53:44.757Z" agent="Mozilla/5.0 (Windows NT 10.0; Win64; x64) AppleWebKit/537.36 (KHTML, like Gecko) Chrome/120.0.0.0 Safari/537.36" etag="m222QAGuSD56taD2kyv-" version="22.1.11" type="device">
  <diagram name="Страница — 1" id="PxV-aLQnVu3vg3B-8tzA">
    <mxGraphModel dx="1539" dy="736" grid="1" gridSize="10" guides="1" tooltips="1" connect="1" arrows="1" fold="1" page="1" pageScale="1" pageWidth="827" pageHeight="1169" math="0" shadow="0">
      <root>
        <mxCell id="0" />
        <mxCell id="1" parent="0" />
        <mxCell id="9vtQVfZT3yNT-jPrZv7b-1" value="Розробник&lt;br&gt;" style="shape=umlActor;verticalLabelPosition=bottom;verticalAlign=top;html=1;outlineConnect=0;" vertex="1" parent="1">
          <mxGeometry x="10" y="180" width="30" height="60" as="geometry" />
        </mxCell>
        <mxCell id="9vtQVfZT3yNT-jPrZv7b-5" value="" style="rounded=0;whiteSpace=wrap;html=1;" vertex="1" parent="1">
          <mxGeometry x="180" y="170" width="310" height="490" as="geometry" />
        </mxCell>
        <mxCell id="9vtQVfZT3yNT-jPrZv7b-15" value="Система" style="text;html=1;strokeColor=none;fillColor=none;align=center;verticalAlign=middle;whiteSpace=wrap;rounded=0;" vertex="1" parent="1">
          <mxGeometry x="210" y="180" width="60" height="30" as="geometry" />
        </mxCell>
        <mxCell id="9vtQVfZT3yNT-jPrZv7b-18" value="Менеджер" style="shape=umlActor;verticalLabelPosition=bottom;verticalAlign=top;html=1;outlineConnect=0;" vertex="1" parent="1">
          <mxGeometry x="10" y="360" width="30" height="60" as="geometry" />
        </mxCell>
        <mxCell id="9vtQVfZT3yNT-jPrZv7b-24" value="Код" style="shape=umlActor;verticalLabelPosition=bottom;verticalAlign=top;html=1;outlineConnect=0;" vertex="1" parent="1">
          <mxGeometry x="120" y="280" width="30" height="60" as="geometry" />
        </mxCell>
        <mxCell id="9vtQVfZT3yNT-jPrZv7b-25" value="" style="endArrow=classic;html=1;rounded=0;entryX=0.5;entryY=0.5;entryDx=0;entryDy=0;dashed=1;entryPerimeter=0;" edge="1" parent="1" source="9vtQVfZT3yNT-jPrZv7b-1" target="9vtQVfZT3yNT-jPrZv7b-24">
          <mxGeometry width="50" height="50" relative="1" as="geometry">
            <mxPoint x="310" y="305" as="sourcePoint" />
            <mxPoint x="310" y="340" as="targetPoint" />
          </mxGeometry>
        </mxCell>
        <mxCell id="9vtQVfZT3yNT-jPrZv7b-26" value="" style="endArrow=classic;html=1;rounded=0;dashed=1;" edge="1" parent="1" source="9vtQVfZT3yNT-jPrZv7b-18" target="9vtQVfZT3yNT-jPrZv7b-24">
          <mxGeometry width="50" height="50" relative="1" as="geometry">
            <mxPoint x="320" y="315" as="sourcePoint" />
            <mxPoint x="320" y="350" as="targetPoint" />
          </mxGeometry>
        </mxCell>
        <mxCell id="9vtQVfZT3yNT-jPrZv7b-27" value="Аналіз" style="ellipse;whiteSpace=wrap;html=1;" vertex="1" parent="1">
          <mxGeometry x="340" y="240" width="90" height="60" as="geometry" />
        </mxCell>
        <mxCell id="9vtQVfZT3yNT-jPrZv7b-28" value="Виявлення помилок та вразливостей" style="ellipse;whiteSpace=wrap;html=1;" vertex="1" parent="1">
          <mxGeometry x="195" y="340" width="90" height="60" as="geometry" />
        </mxCell>
        <mxCell id="9vtQVfZT3yNT-jPrZv7b-29" value="Відстеження покриття коду тестами" style="ellipse;whiteSpace=wrap;html=1;" vertex="1" parent="1">
          <mxGeometry x="390" y="400" width="90" height="60" as="geometry" />
        </mxCell>
        <mxCell id="9vtQVfZT3yNT-jPrZv7b-30" value="Перевірка згідності стандартам&amp;nbsp;" style="ellipse;whiteSpace=wrap;html=1;" vertex="1" parent="1">
          <mxGeometry x="290" y="370" width="90" height="60" as="geometry" />
        </mxCell>
        <mxCell id="9vtQVfZT3yNT-jPrZv7b-31" value="Формування спску помилок" style="ellipse;whiteSpace=wrap;html=1;" vertex="1" parent="1">
          <mxGeometry x="250" y="500" width="90" height="60" as="geometry" />
        </mxCell>
        <mxCell id="9vtQVfZT3yNT-jPrZv7b-32" value="" style="endArrow=classic;html=1;rounded=0;entryX=0;entryY=0.5;entryDx=0;entryDy=0;dashed=1;exitX=0.5;exitY=0.5;exitDx=0;exitDy=0;exitPerimeter=0;" edge="1" parent="1" source="9vtQVfZT3yNT-jPrZv7b-24" target="9vtQVfZT3yNT-jPrZv7b-27">
          <mxGeometry width="50" height="50" relative="1" as="geometry">
            <mxPoint x="70" y="180" as="sourcePoint" />
            <mxPoint x="165" y="266" as="targetPoint" />
          </mxGeometry>
        </mxCell>
        <mxCell id="9vtQVfZT3yNT-jPrZv7b-33" value="" style="endArrow=classic;html=1;rounded=0;entryX=1;entryY=0;entryDx=0;entryDy=0;dashed=1;exitX=0;exitY=1;exitDx=0;exitDy=0;" edge="1" parent="1" source="9vtQVfZT3yNT-jPrZv7b-27" target="9vtQVfZT3yNT-jPrZv7b-28">
          <mxGeometry width="50" height="50" relative="1" as="geometry">
            <mxPoint x="145" y="320" as="sourcePoint" />
            <mxPoint x="350" y="280" as="targetPoint" />
          </mxGeometry>
        </mxCell>
        <mxCell id="9vtQVfZT3yNT-jPrZv7b-35" value="" style="endArrow=classic;html=1;rounded=0;entryX=0.5;entryY=0;entryDx=0;entryDy=0;dashed=1;exitX=0.389;exitY=1.033;exitDx=0;exitDy=0;exitPerimeter=0;" edge="1" parent="1" source="9vtQVfZT3yNT-jPrZv7b-27" target="9vtQVfZT3yNT-jPrZv7b-30">
          <mxGeometry width="50" height="50" relative="1" as="geometry">
            <mxPoint x="363" y="301" as="sourcePoint" />
            <mxPoint x="282" y="359" as="targetPoint" />
          </mxGeometry>
        </mxCell>
        <mxCell id="9vtQVfZT3yNT-jPrZv7b-36" value="" style="endArrow=classic;html=1;rounded=0;entryX=0.5;entryY=0;entryDx=0;entryDy=0;dashed=1;exitX=0.756;exitY=0.917;exitDx=0;exitDy=0;exitPerimeter=0;" edge="1" parent="1" source="9vtQVfZT3yNT-jPrZv7b-27" target="9vtQVfZT3yNT-jPrZv7b-29">
          <mxGeometry width="50" height="50" relative="1" as="geometry">
            <mxPoint x="373" y="311" as="sourcePoint" />
            <mxPoint x="292" y="369" as="targetPoint" />
          </mxGeometry>
        </mxCell>
        <mxCell id="9vtQVfZT3yNT-jPrZv7b-37" value="" style="endArrow=classic;html=1;rounded=0;entryX=0.5;entryY=0;entryDx=0;entryDy=0;dashed=1;" edge="1" parent="1" source="9vtQVfZT3yNT-jPrZv7b-28" target="9vtQVfZT3yNT-jPrZv7b-31">
          <mxGeometry width="50" height="50" relative="1" as="geometry">
            <mxPoint x="280.5" y="440" as="sourcePoint" />
            <mxPoint x="199.5" y="498" as="targetPoint" />
          </mxGeometry>
        </mxCell>
        <mxCell id="9vtQVfZT3yNT-jPrZv7b-38" value="" style="endArrow=classic;html=1;rounded=0;dashed=1;exitX=0.5;exitY=1;exitDx=0;exitDy=0;" edge="1" parent="1" source="9vtQVfZT3yNT-jPrZv7b-30">
          <mxGeometry width="50" height="50" relative="1" as="geometry">
            <mxPoint x="262" y="409" as="sourcePoint" />
            <mxPoint x="310" y="500" as="targetPoint" />
          </mxGeometry>
        </mxCell>
        <mxCell id="9vtQVfZT3yNT-jPrZv7b-39" value="" style="endArrow=classic;html=1;rounded=0;dashed=1;exitX=0;exitY=1;exitDx=0;exitDy=0;entryX=1;entryY=0;entryDx=0;entryDy=0;" edge="1" parent="1" source="9vtQVfZT3yNT-jPrZv7b-29" target="9vtQVfZT3yNT-jPrZv7b-31">
          <mxGeometry width="50" height="50" relative="1" as="geometry">
            <mxPoint x="345" y="440" as="sourcePoint" />
            <mxPoint x="320" y="510" as="targetPoint" />
          </mxGeometry>
        </mxCell>
      </root>
    </mxGraphModel>
  </diagram>
</mxfile>
